<svg width="22" height="22" viewBox="0 0 22 22" fill="none" xmlns="http://www.w3.org/2000/svg">
<path d="M17.4167 3.66659H15.5833V2.74992C15.5833 2.5068 15.4868 2.27365 15.3148 2.10174C15.1429 1.92983 14.9098 1.83325 14.6667 1.83325C14.4236 1.83325 14.1904 1.92983 14.0185 2.10174C13.8466 2.27365 13.75 2.5068 13.75 2.74992V3.66659H8.25V2.74992C8.25 2.5068 8.15342 2.27365 7.98151 2.10174C7.80961 1.92983 7.57645 1.83325 7.33333 1.83325C7.09022 1.83325 6.85706 1.92983 6.68515 2.10174C6.51324 2.27365 6.41667 2.5068 6.41667 2.74992V3.66659H4.58333C3.85399 3.66659 3.15452 3.95632 2.63879 4.47204C2.12307 4.98777 1.83333 5.68724 1.83333 6.41658V17.4166C1.83333 18.1459 2.12307 18.8454 2.63879 19.3611C3.15452 19.8769 3.85399 20.1666 4.58333 20.1666H17.4167C18.146 20.1666 18.8455 19.8769 19.3612 19.3611C19.8769 18.8454 20.1667 18.1459 20.1667 17.4166V6.41658C20.1667 5.68724 19.8769 4.98777 19.3612 4.47204C18.8455 3.95632 18.146 3.66659 17.4167 3.66659ZM18.3333 17.4166C18.3333 17.6597 18.2368 17.8929 18.0648 18.0648C17.8929 18.2367 17.6598 18.3333 17.4167 18.3333H4.58333C4.34022 18.3333 4.10706 18.2367 3.93515 18.0648C3.76324 17.8929 3.66667 17.6597 3.66667 17.4166V10.9999H18.3333V17.4166ZM18.3333 9.16658H3.66667V6.41658C3.66667 6.17347 3.76324 5.94031 3.93515 5.7684C4.10706 5.5965 4.34022 5.49992 4.58333 5.49992H6.41667V6.41658C6.41667 6.6597 6.51324 6.89286 6.68515 7.06477C6.85706 7.23667 7.09022 7.33325 7.33333 7.33325C7.57645 7.33325 7.80961 7.23667 7.98151 7.06477C8.15342 6.89286 8.25 6.6597 8.25 6.41658V5.49992H13.75V6.41658C13.75 6.6597 13.8466 6.89286 14.0185 7.06477C14.1904 7.23667 14.4236 7.33325 14.6667 7.33325C14.9098 7.33325 15.1429 7.23667 15.3148 7.06477C15.4868 6.89286 15.5833 6.6597 15.5833 6.41658V5.49992H17.4167C17.6598 5.49992 17.8929 5.5965 18.0648 5.7684C18.2368 5.94031 18.3333 6.17347 18.3333 6.41658V9.16658Z" fill="black"/>
</svg>
